<svg xmlns="http://www.w3.org/2000/svg" width="100" height="100" viewBox="0 0 100 100">
  <defs>
    <linearGradient id="icon-1-a" x1="89.787%" x2="9.988%" y1="15.66%" y2="85.5%">
      <stop offset="0%" stop-color="#233858"/>
      <stop offset="100%" stop-color="#171A3D"/>
    </linearGradient>
  </defs>
  <g fill="none" fill-rule="evenodd">
    <circle cx="50" cy="50" r="50" fill="url(#icon-1-a)"/>
    <path stroke="#FFF" stroke-width="3" d="M59.5753965,23.7131463 C58.6220484,23.554255 57.6945503,23.7968265 56.9656663,24.3174579 C56.2367824,24.8380893 55.7065126,25.6367805 55.5476213,26.5901286 L49.8636546,60.8599669 C49.8238067,61.8817952 50.2222174,62.811044 50.8860471,63.4748737 C51.5194225,64.1082492 52.3944225,64.5 53.3609208,64.5 L65.0772191,64.4725357 C66.0911132,64.3435479 66.9417184,63.7979327 67.4871463,63.0343337 C68.0077777,62.3054497 68.2503492,61.3779516 68.0914579,60.4246035 L62.4523787,26.5901286 C62.3294491,25.8525508 61.9789924,25.19477 61.4748737,24.6906513 C60.970755,24.1865326 60.3129743,23.836076 59.5753965,23.7131463 Z" transform="rotate(45 59 39)"/>
  </g>
</svg>
