<svg xmlns="http://www.w3.org/2000/svg" width="102" height="100" viewBox="0 0 102 100">
  <defs>
    <linearGradient id="icon-2-a" x1="89.787%" x2="9.988%" y1="15.66%" y2="85.5%">
      <stop offset="0%" stop-color="#233858"/>
      <stop offset="100%" stop-color="#171A3D"/>
    </linearGradient>
  </defs>
  <g fill="none" fill-rule="evenodd" transform="translate(.472)">
    <circle cx="50.528" cy="50" r="50" fill="url(#icon-2-a)"/>
    <path stroke="#FFF" stroke-width="3" d="M56.5154029,35.5536626 C55.156962,34.8744422 53.6518161,34.8101405 52.3164754,35.255254 C50.9811346,35.7003676 49.815599,36.6548965 49.1363785,38.0133374 L39.6085145,57.0690655 C39.226662,57.8327704 39.027864,58.6748922 39.027864,59.5287403 C39.027864,61.0475233 39.6434725,62.4225233 40.6387767,63.4178276 C41.634081,64.4131318 43.009081,65.0287403 44.527864,65.0287403 L63.5835921,65.0287403 C64.4374402,65.0287403 65.279562,64.8299423 66.0432669,64.4480898 C67.4017078,63.7688694 68.3562367,62.6033337 68.8013503,61.267993 C69.2464639,59.9326522 69.1821621,58.4275064 68.5029417,57.0690655 L58.9750776,38.0133374 C58.4428773,36.9489367 57.5798036,36.085863 56.5154029,35.5536626 Z" transform="rotate(90 54.056 50)"/>
  </g>
</svg>
