<svg xmlns="http://www.w3.org/2000/svg" width="66" height="54" viewBox="0 0 66 54">
  <g fill="#373981">
    <polygon points="10.96 11.021 10.294 11.767 33 32.034 55.706 11.767 55.04 11.021 33 30.693"/>
    <path d="M3,7.36363636 L3,46.6363636 C3,49.0461818 4.791,51 7,51 L59,51 C61.209,51 63,49.0461818 63,46.6363636 L63,7.36363636 C63,4.95381818 61.209,3 59,3 L7,3 C4.791,3 3,4.95381818 3,7.36363636 Z M0,7.36363636 C0,3.35242887 3.0730598,0 7,0 L59,0 C62.9269402,0 66,3.35242887 66,7.36363636 L66,46.6363636 C66,50.6475711 62.9269402,54 59,54 L7,54 C3.0730598,54 0,50.6475711 0,46.6363636 L0,7.36363636 Z"/>
  </g>
</svg>
