<svg xmlns="http://www.w3.org/2000/svg" width="1919" height="338" viewBox="0 0 1919 338">
  <path fill="#FFF" fill-rule="evenodd" d="M1,2027 C364.333333,2027 727.666667,2027 1091,2027 C1256.9244,2027 1440.00297,2073.21868 1578.56425,2128.41994 C1624.45186,2146.70105 1703.5329,2188.75464 1763.05276,2226.29958 C1789.33227,2242.87661 1822.63466,2269.29606 1862.95994,2305.55794 L1862.95994,2305.55794 L1918.37601,2363.30762 C1918.7584,2363.70611 1918.74535,2364.33914 1918.34685,2364.72153 C1918.16064,2364.90022 1917.91255,2365 1917.65447,2365 L1,2365 C0.44771525,2365 6.76353751e-17,2364.55228 0,2364 L0,2028 C-6.76353751e-17,2027.44772 0.44771525,2027 1,2027 Z" transform="translate(0 -2027)"/>
</svg>
