<svg xmlns="http://www.w3.org/2000/svg" width="70" height="70" viewBox="0 0 70 70">
  <g fill="none" fill-rule="evenodd" stroke="#373981" transform="translate(3 3)">
    <path stroke-width="3" d="M60,-1.5 L4,-1.5 C2.48121694,-1.5 1.10621694,-0.884391531 0.110912703,0.110912703 C-0.884391531,1.10621694 -1.5,2.48121694 -1.5,4 L-1.5,60 C-1.5,61.5187831 -0.884391531,62.8937831 0.110912703,63.8890873 C1.10621694,64.8843915 2.48121694,65.5 4,65.5 L60,65.5 C61.5187831,65.5 62.8937831,64.8843915 63.8890873,63.8890873 C64.8843915,62.8937831 65.5,61.5187831 65.5,60 L65.5,4 C65.5,2.48121694 64.8843915,1.10621694 63.8890873,0.110912703 C62.8937831,-0.884391531 61.5187831,-1.5 60,-1.5 Z"/>
    <circle cx="8" cy="8" r="2.5"/>
    <circle cx="16" cy="8" r="2.5"/>
    <circle cx="24" cy="8" r="2.5"/>
  </g>
</svg>
