<svg xmlns="http://www.w3.org/2000/svg" width="353" height="96" viewBox="0 0 353 96">
  <g fill="none" fill-rule="evenodd">
    <g fill="#FDB44D">
      <rect width="350" height="96" fill-opacity=".1"/>
      <rect width="3" height="96" x="350"/>
    </g>
    <path fill="#373981" fill-rule="nonzero" d="M27.704,63 L27.704,50.808 L40.376,29.4 L29.432,29.4 L22.52,41.016 L15.656,29.4 L3.704,29.4 L16.376,50.664 L16.376,63 L27.704,63 Z M61.992,63.768 C65.608,63.768 68.856,63.016 71.736,61.512 C74.616,60.008 76.872,57.92 78.504,55.248 C80.136,52.576 80.952,49.56 80.952,46.2 C80.952,42.84 80.136,39.824 78.504,37.152 C76.872,34.48 74.616,32.392 71.736,30.888 C68.856,29.384 65.608,28.632 61.992,28.632 C58.376,28.632 55.128,29.384 52.248,30.888 C49.368,32.392 47.112,34.48 45.48,37.152 C43.848,39.824 43.032,42.84 43.032,46.2 C43.032,49.56 43.848,52.576 45.48,55.248 C47.112,57.92 49.368,60.008 52.248,61.512 C55.128,63.016 58.376,63.768 61.992,63.768 Z M61.992,54.6 C60.584,54.6 59.312,54.256 58.176,53.568 C57.04,52.88 56.136,51.904 55.464,50.64 C54.792,49.376 54.456,47.896 54.456,46.2 C54.456,44.504 54.792,43.024 55.464,41.76 C56.136,40.496 57.04,39.52 58.176,38.832 C59.312,38.144 60.584,37.8 61.992,37.8 C63.4,37.8 64.672,38.144 65.808,38.832 C66.944,39.52 67.848,40.496 68.52,41.76 C69.192,43.024 69.528,44.504 69.528,46.2 C69.528,47.896 69.192,49.376 68.52,50.64 C67.848,51.904 66.944,52.88 65.808,53.568 C64.672,54.256 63.4,54.6 61.992,54.6 Z M105.16,63.768 C110.312,63.768 114.328,62.376 117.208,59.592 C120.088,56.808 121.528,52.904 121.528,47.88 L121.528,47.88 L121.528,29.4 L110.392,29.4 L110.392,47.544 C110.392,50.008 109.952,51.8 109.072,52.92 C108.192,54.04 106.92,54.6 105.256,54.6 C103.592,54.6 102.32,54.04 101.44,52.92 C100.56,51.8 100.12,50.008 100.12,47.544 L100.12,47.544 L100.12,29.4 L88.792,29.4 L88.792,47.88 C88.792,52.904 90.232,56.808 93.112,59.592 C95.992,62.376 100.008,63.768 105.16,63.768 Z M142.04,63 L142.04,54.552 L145.112,54.552 L150.824,63 L162.92,63 L155.864,52.632 C157.912,51.576 159.48,50.152 160.568,48.36 C161.656,46.568 162.2,44.472 162.2,42.072 C162.2,39.512 161.576,37.272 160.328,35.352 C159.08,33.432 157.304,31.96 155,30.936 C152.696,29.912 149.992,29.4 146.888,29.4 L146.888,29.4 L130.712,29.4 L130.712,63 L142.04,63 Z M146.168,46.008 L142.04,46.008 L142.04,38.136 L146.168,38.136 C147.704,38.136 148.856,38.48 149.624,39.168 C150.392,39.856 150.776,40.824 150.776,42.072 C150.776,43.32 150.392,44.288 149.624,44.976 C148.856,45.664 147.704,46.008 146.168,46.008 L146.168,46.008 Z M199.912,63 L199.912,47.736 L212.68,63 L221.992,63 L221.992,29.4 L210.952,29.4 L210.952,44.664 L198.184,29.4 L188.872,29.4 L188.872,63 L199.912,63 Z M239.336,63 L241.592,57.144 L254.36,57.144 L256.616,63 L268.328,63 L253.64,29.4 L242.504,29.4 L227.816,63 L239.336,63 Z M251.24,48.984 L244.712,48.984 L247.976,40.536 L251.24,48.984 Z M284.472,63 L284.472,48.216 L291.768,59.976 L296.76,59.976 L304.056,47.688 L304.152,63 L314.472,63 L314.376,29.4 L305.064,29.4 L294.408,47.304 L283.464,29.4 L274.152,29.4 L274.152,63 L284.472,63 Z M351.88,63 L351.88,54.456 L335.08,54.456 L335.08,50.04 L349.288,50.04 L349.288,41.88 L335.08,41.88 L335.08,37.944 L351.256,37.944 L351.256,29.4 L323.944,29.4 L323.944,63 L351.88,63 Z"/>
  </g>
</svg>
